<svg viewBox="0 0 32 32"><defs><path d="M30 14L16 0 2 14h10v18h8V14z" id="icongs-arrowchunky"><path d="M0 16l16 16 16-16-1.4-1.402L16.936 28.26V0H15v28.2L1.4 14.597z" id="icongs-arrowdown"><path d="M16 .002l-16 16 16 16 1.402-1.4L3.742 16.94H32V15H3.8l13.602-13.6z" id="icongs-arrowleft"><path d="M3.2 32V5.462l23.673 23.674 2.264-2.262L5.463 3.2H32V0H0v32z" id="icongs-arrowne"><path d="M0 3.2h26.538L2.864 26.873l2.262 2.264L28.8 5.463V32H32V0H0z" id="icongs-arrownw"><path d="M16 32l16-16L16 0l-1.402 1.4L28.26 15.062H0V17h28.198l-13.6 13.6z" id="icongs-arrowright"><path d="M32.002 28.8H5.464L29.138 5.124l-2.262-2.263L3.202 26.536V0h-3.2v32h32z" id="icongs-arrowse"><path d="M28.8 0v26.538L5.127 2.864 2.864 5.126 26.537 28.8H0V32h32V0z" id="icongs-arrowsw"><path d="M32 16L16 0 0 16l1.4 1.402L15.062 3.74V32H17V3.802l13.6 13.6z" id="icongs-arrowup"><path d="M12 10.664H4V21.33h8l16 10.667v-32z" id="icongs-audio"><path d="M4.834 32V0h22.332v32H4.834zm19.103-3.223V3.222H8.053v25.556h15.884z" id="icongs-border"><path d="M26.496 28.632l1.637-1.637L17.637 16.5 28.133 6.004l-1.637-1.636L16 14.863 5.505 4.368 3.868 6.004 14.364 16.5 3.868 26.995l1.637 1.637L16 18.137z" id="icongs-close"><path d="M26 24h6V2H0v22h16v8" id="icongs-comment"><path d="M.088 8.783L1.502 7.37l14.142 14.14 14.85-14.848 1.414 1.414L15.644 24.34z" id="icongs-directiondown"><path d="M22.717-.408l1.414 1.414L9.99 15.148l14.848 14.85-1.414 1.414L7.16 15.148z" id="icongs-directionleft"><path d="M9.28 31.41l-1.413-1.414L22.01 15.854 7.16 1.004 8.574-.41l16.264 16.264z" id="icongs-directionright"><path d="M31.91 22.218l-1.415 1.414L16.353 9.49 1.503 24.34.09 22.924 16.352 6.66z" id="icongs-directionup"><path d="M32 2.666v-.148L0 2.5v26.833h32V2.666zm-5.38 3L16 15.308 5.397 5.666H26.62zM3 26.333V7.543L16 19.36 29 7.556v18.777H3z" id="icongs-email"><path d="M11.356 6.445v4.58H8v5.603h3.356V32h6.895V16.63h4.627s.433-2.686.643-5.623h-5.243v-3.83c0-.572.752-1.342 1.495-1.342h3.756V0h-5.106c-7.236 0-7.066 5.608-7.066 6.445z" id="icongs-facebook"><path d="M8 7H2v6H0V5h8v2zm24 6V5h-8v2h6v6h2zm-8 14h8v-8h-2v6h-6v2zM0 19v8h8v-2H2v-6H0z" id="icongs-fullscreen"><path d="M22 12v16H2V12h20m2-2H0v20h24V10zM28 6H4v3h2V8h20v16h-1v2h3zM32 2H8v3h2V4h20v16h-1v2h3z" id="icongs-gallery"><path fill-rule="evenodd" clip-rule="evenodd" d="M32 13.047h-4.4V8.592h-2.545v4.455h-4.402v2.577h4.402v4.456H27.6v-4.456H32zM15.98 18.183l-1.403-1.17c-.2-.203-.41-.442-.625-.716-.253-.288-.38-.648-.38-1.087 0-.45.124-.848.37-1.19.21-.326.438-.62.684-.88.432-.382.838-.758 1.22-1.128.345-.37.672-.77.98-1.21.63-.9.955-2.103.98-3.607 0-.82-.092-1.538-.274-2.152-.22-.615-.474-1.148-.758-1.6-.3-.478-.605-.88-.917-1.21-.323-.314-.615-.554-.876-.717h2.55L20.085 0h-8.268C10.72 0 9.544.13 8.29.39c-1.267.3-2.487.942-3.663 1.927C2.917 3.997 2.06 5.87 2.06 7.933c0 1.71.605 3.205 1.813 4.49 1.153 1.38 2.83 2.084 5.03 2.11.416 0 .858-.026 1.328-.082l-.25.722c-.105.248-.157.557-.157.928 0 .62.136 1.148.407 1.588.234.453.5.88.798 1.278-.965.027-2.177.15-3.636.368-1.474.26-2.88.777-4.22 1.554-1.19.724-2.015 1.562-2.47 2.518-.467.954-.702 1.822-.702 2.6 0 1.595.72 2.965 2.162 4.11 1.428 1.23 3.59 1.858 6.485 1.884 3.458-.055 6.104-.896 7.94-2.52 1.767-1.573 2.652-3.377 2.652-5.413-.026-1.435-.35-2.597-.968-3.485-.656-.876-1.42-1.675-2.293-2.4zm-5.166-4.792c-.86 0-1.627-.268-2.296-.803-.67-.532-1.217-1.184-1.642-1.95-.874-1.643-1.31-3.226-1.31-4.745-.027-1.15.272-2.192.898-3.123.743-.89 1.674-1.35 2.795-1.377.845.027 1.594.28 2.246.76.64.507 1.152 1.164 1.544 1.974.833 1.684 1.25 3.354 1.25 5.01 0 .385-.03.856-.09 1.42-.1.56-.325 1.108-.675 1.643-.725.75-1.633 1.148-2.72 1.19zm4.263 15.54c-1.026.846-2.514 1.283-4.46 1.31-2.174-.027-3.885-.52-5.135-1.477-1.316-.956-1.975-2.173-1.975-3.65 0-.75.15-1.394.455-1.926.263-.507.586-.93.968-1.272.394-.327.782-.58 1.164-.757.38-.165.678-.288.888-.37.896-.272 1.77-.473 2.626-.595.87-.082 1.41-.11 1.62-.082.355 0 .665.015.927.042 1.54 1.094 2.672 2.017 3.396 2.77.686.79 1.026 1.72 1.026 2.787 0 1.31-.5 2.384-1.5 3.22z" id="icongs-googleplus"><path d="M5.334 26.416c0 2.946 2.388 5.334 5.333 5.334V21.083c-2.945 0-5.333 2.388-5.333 5.333zM21.333 21.083V31.75c2.945 0 5.333-2.388 5.333-5.333 0-2.946-2.388-5.334-5.333-5.334zM16 .25C7.82.25 1.167 6.904 1.167 15.083v8.667h3v-8.667C4.167 8.56 9.477 3.25 16 3.25s11.833 5.31 11.833 11.833v8.667h3v-8.667C30.833 6.903 24.18.25 16 .25z" id="icongs-headphones"><path d="M32 9.2C32 5.227 28.673 2 24.57 2 20.667 2 16.412 4.926 16 8.635 15.588 4.925 11.333 2 7.43 2 3.327 2 0 5.226 0 9.2c0 9.15 14.342 19.57 15.92 20.69V30l.08-.057.08.057v-.11C17.657 28.77 32 18.35 32 9.2z" id="icongs-heart"><path d="M24.57 4C27.564 4 30 6.333 30 9.2c0 6.11-9.216 14.56-14 18.293C11.216 23.76 2 15.31 2 9.2 2 6.334 4.436 4 7.43 4c3.038 0 5.066 1.464 6.78 4.895L16 12.472l1.79-3.577C19.503 5.465 21.53 4 24.57 4m0-2C20.667 2 18 4 16 8c-2-4-4.667-6-8.57-6C3.327 2 0 5.226 0 9.2 0 18.353 16 30 16 30S32 18.352 32 9.2C32 5.227 28.673 2 24.57 2z" id="icongs-hearthollow"><path d="M32 17.042L16 3.002 0 17.04h6v10.96h7v-7h6v7h7V17.04z" id="icongs-home"><path d="M3.686 31.945H28.26c2.036 0 3.686-1.65 3.686-3.688V3.687C31.946 1.648 30.296 0 28.26 0H3.687C1.65 0 0 1.65 0 3.686v24.572c0 2.037 1.65 3.687 3.686 3.687zm18.43-27.032c0-.678.55-1.228 1.23-1.228h3.684c.68 0 1.23.55 1.23 1.228V8.6c0 .68-.55 1.23-1.23 1.23h-3.685c-.68 0-1.23-.55-1.23-1.23V4.914zM15.973 9.83c3.394 0 6.144 2.748 6.144 6.142 0 3.393-2.75 6.144-6.144 6.144s-6.144-2.75-6.144-6.144 2.75-6.143 6.143-6.143zM3.686 13.513h2.78c-.202.786-.322 1.608-.322 2.458 0 5.43 4.4 9.83 9.83 9.83 5.428 0 9.828-4.4 9.828-9.83 0-.85-.12-1.672-.322-2.458h2.78V27.03c0 .678-.55 1.228-1.23 1.228H4.916c-.68 0-1.23-.55-1.23-1.228V13.514z" id="icongs-instagram"><path d="M15.498 0v30.133L.68 15.316 0 16l16 16 16-16-.683-.684-14.817 14.82V0z" id="icongs-lightarrowdown"><path d="M32 15.5H1.867L16.684.683 16 0 0 16l16 16 .684-.683L1.864 16.5H32z" id="icongs-lightarrowleft"><path d="M0 16.5h30.133L15.316 31.317 16 32l16-16L16 0l-.684.683L30.136 15.5H0z" id="icongs-lightarrowright"><path d="M16.5 32V1.867l14.817 14.817L32 16 16 0 0 16l.683.684L15.5 1.864V32z" id="icongs-lightarrowup"><path d="M0 8.684L.683 8 16 23.32 31.317 8l.683.684-16 16z" id="icongs-lightdirectiondown"><path d="M23.317 0L24 .683 8.682 16 24 31.317l-.683.683-16-16z" id="icongs-lightdirectionleft"><path d="M8.683 32L8 31.317 23.317 16 8 .683 8.683 0l16 16z" id="icongs-lightdirectionright"><path d="M32 23.316l-.683.684L16 8.682.683 24 0 23.316l16-16z" id="icongs-lightdirectionup"><g id="icongs-linkedin"><path d="M.526 10.626h6.636V32H.526V10.626zM3.843 0C5.963 0 7.69 1.726 7.69 3.848c0 2.13-1.726 3.858-3.847 3.858C1.72 7.706 0 5.976 0 3.848 0 1.726 1.72 0 3.843 0"><path d="M11.32 10.626h6.363v2.917h.09c.886-1.677 3.05-3.45 6.276-3.45 6.71 0 7.95 4.427 7.95 10.184V32h-6.626V21.604c0-2.48-.046-5.667-3.447-5.667-3.45 0-3.978 2.7-3.978 5.49V32h-6.63V10.626z"></g><path d="M25.5 13.333V9.5C25.5 4.262 21.238 0 16 0S6.5 4.262 6.5 9.5v3.833H2.667V32h26.667V13.333H25.5zM9.5 9.5C9.5 5.916 12.416 3 16 3s6.5 2.916 6.5 6.5v3.833h-13V9.5z" id="icongs-lock"><g id="icongs-member"><path fill="#231F20" d="M31 32c0-8.285-6.715-15-15-15S1 23.715 1 32"><circle fill="#231F20" cx="16" cy="7" r="7"></g><path d="M0 6h32v4H0zM0 14h32v4H0zM0 22h32v4H0z" id="icongs-menu"><path d="M32 17.157v-2.314H17.157V0h-2.314v14.843H0v2.314h14.843V32h2.314V17.157z" id="icongs-open"><path d="M13.787 21.165C12.947 25.57 11.92 29.795 8.88 32c-.94-6.658 1.377-11.658 2.454-16.968-1.836-3.086.22-9.302 4.09-7.77C20.18 9.146 11.3 18.74 17.263 19.94c6.224 1.25 8.765-10.8 4.904-14.72C16.59-.438 5.935 5.09 7.245 13.192c.318 1.982 2.364 2.582.817 5.315-3.57-.79-4.635-3.604-4.498-7.358C3.784 5.004 9.084.703 14.4.107c6.722-.752 13.03 2.47 13.9 8.792.98 7.135-3.034 14.865-10.222 14.31-1.947-.15-2.765-1.116-4.29-2.045z" id="icongs-pinterest"><path fill-rule="evenodd" clip-rule="evenodd" d="M2 0v32l28-16L2 0z" id="icongs-play"><path d="M10 21h12v2H10zM10 24h12v2H10zM30 8.828h-4V6l-4-4H6v6.828H2V25h4v5h20v-5h4V8.828zM8 4h13.172L24 6.828v2H8V4zm16 24H8v-9h16v9zm4-5h-2v-6H6v6H4V13h24v10z" id="icongs-print"><g fill="#030303" id="icongs-refresh"><path d="M5 18.526v-3.368s0-11.79 8.462-11.79h5.076V0L27 8.42l-8.462 8.422V11.79H11.77s-5.078 0-6.77 6.736zM27 13.474v3.368s0 11.79-8.462 11.79h-5.076V32L5 23.58l8.462-8.422v5.053h6.77s5.077 0 6.768-6.736z"></g><path d="M0 14.843h32v2.314H0z" id="icongs-remove"><path d="M32 29.88L21.472 19.35C23.052 17.32 24 14.773 24 12c0-6.628-5.372-12-12-12C5.372 0 0 5.37 0 12c0 6.627 5.373 12 12 12 2.772 0 5.318-.95 7.35-2.528L29.88 32 32 29.88zM12 21c-4.963 0-9-4.037-9-9s4.037-9 9-9c4.962 0 9 4.037 9 9s-4.038 9-9 9z" id="icongs-search"><path d="M27 25.212l-8.883-8.883c1.332-1.716 2.133-3.864 2.133-6.203C20.25 4.534 15.717 0 10.124 0 4.534 0 0 4.535 0 10.128c0 5.592 4.533 10.125 10.124 10.125 2.34 0 4.488-.8 6.203-2.134l8.883 8.884 1.79-1.79zm-16.876-7.49c-4.187 0-7.593-3.407-7.593-7.595s3.407-7.595 7.594-7.595c4.188 0 7.595 3.407 7.595 7.595s-3.408 7.594-7.596 7.594zM19.832 3c.143.22.282.443.408.674.574.702 1.055 1.484 1.424 2.327H32V3H19.833zM22.5 10c0 .687-.068 1.355-.2 2H32V9h-9.55c.033.33.05.663.05 1zM32 18v-3H21.153c-.168.29-.35.57-.545.84l2.16 2.16H32zM19.638 3c.21.216.412.44.603.674-.125-.23-.265-.453-.407-.673h-.195z" id="icongs-searchmenu"><path fill="#030303" d="M16.002 18.286v-4.54c-5.017.15-9.04 4.158-9.04 9.11 0 4.953 4.023 8.96 9.04 9.114V32C8.27 32.003 2 25.86 2 18.286 2 10.71 8.27 4.57 16.002 4.57V0L30 9.143l-13.998 9.143z" id="icongs-share"><path d="M18.356 31.944c-6.657 0-9.185-4.992-9.185-8.528V12.984H6V8.856c4.757-1.744 5.903-6.112 6.17-8.608.018-.172.15-.24.225-.24h4.584v8.128h6.263v4.832h-6.295v9.936c.02 1.33.49 3.152 2.888 3.152.045 0 .09 0 .134-.002.83-.022 1.947-.27 2.528-.552l1.507 4.56c-.628.91-3.17 1.888-5.48 1.936-.078.002-.156.002-.22.002" id="icongs-tumblr"><path d="M0 5v19h32V5H0zm29 16H3V8h26v13zM10 25h12v3H10z" id="icongs-tv"><path d="M28.69 8.55v.833C28.69 18.068 22.09 28 10.07 28 6.32 28 2.918 26.96 0 25.084c.486.068 1.04.068 1.596.068 3.06 0 5.907-1.043 8.127-2.778-2.847-.07-5.278-1.945-6.112-4.585.35.137.766.137 1.184.137.624 0 1.18-.068 1.738-.208-2.99-.627-5.215-3.266-5.215-6.462v-.07c.835.487 1.876.766 2.922.834-1.74-1.18-2.924-3.196-2.924-5.487 0-1.183.35-2.293.904-3.267 3.265 3.96 8.06 6.6 13.548 6.81-.14-.418-.208-.974-.208-1.46 0-3.612 2.917-6.53 6.6-6.53 1.876 0 3.545.764 4.724 2.016 1.528-.28 2.918-.835 4.17-1.53-.486 1.53-1.53 2.78-2.85 3.614 1.32-.21 2.57-.557 3.752-1.043-.903 1.32-2.014 2.43-3.265 3.404z" id="icongs-twitter"><g id="icongs-usermenu"><path fill="#221F1F" d="M24.704 23.903c-1.355-2.36-7.045-3.438-7.857-5.274-.812-1.835-.18-1.958.36-2.746.544-.784.722-3.022.722-3.022s.815.064.995-.328c.184-.394.748-3.198.38-3.436-.24-.154-.29-.164-.296-.155.013-.133.25-2.665-.33-4.59-.526-1.747-2.188-3.12-4.733-3.474l.002-.003L9.963 0l.618.814-1.764-.29.524.69L5.864 2.62l1.082.557-1.81 1.2.94.012L5.5 6.33l.783-.807.485 1.725c-.018.89.073 1.492.073 1.492s-.017.145-.384.38c-.365.235.142 2.993.326 3.388.182.394 1.06.366 1.06.366s.145 2.15.688 2.938c.542.787 1.247 1.03.396 2.85-.685 1.466-6.27 2.592-7.624 4.952-1.355 2.36-1.225 8.388-1.225 8.388h25.908s.07-5.74-1.28-8.1z"><path d="M21.15 6.002c.063.704.08 1.367.07 1.904.15 1.033.112 1.39.192 2.096h10.584v-4H21.15zM20.454 14.002c-.236.406-.12.768-.508 1.05-.18.803-.78 1.642-1.2 2.305.376.2.32.435.792.646h12.46v-4H20.453zM25.987 22.002c.1.135.234.265.322.408.6.984 1.03 2.06 1.188 3.592h4.498v-4h-6.01z"></g><g id="icongs-youtube"><path d="M24.265 11.94h-1.68v-.973c-.638.73-1.178 1.1-1.767 1.1-.517 0-.876-.245-1.055-.685-.11-.268-.187-.687-.187-1.3V3.008h1.68v7.253c.04.248.146.34.36.34.32 0 .61-.28.967-.782v-6.81h1.68v8.932z"><path d="M18.34 5.926c0-.955-.193-1.67-.53-2.123-.45-.61-1.15-.86-1.86-.86-.8 0-1.41.25-1.855.86-.345.452-.53 1.177-.53 2.132V9.11c0 .95.163 1.605.508 2.053.447.61 1.172.932 1.88.932.707 0 1.444-.322 1.893-.932.34-.447.495-1.103.495-2.053V5.926zm-1.682 3.36c.09.885-.187 1.324-.708 1.324s-.795-.44-.707-1.323V5.75c-.088-.886.186-1.3.707-1.3.522 0 .798.414.71 1.3l-.002 3.537z"><path d="M11.705 7.075v4.865H9.937V7.075S8.104 1.112 7.727 0h1.856l1.24 4.66L12.06 0h1.856l-2.21 7.075z"><path d="M28.937 17.498s-.258-1.812-1.05-2.61c-1.005-1.046-2.13-1.052-2.646-1.113-3.695-.266-9.238-.266-9.238-.266h-.012s-5.544 0-9.24.265c-.516.062-1.642.067-2.646 1.114-.792.797-1.05 2.608-1.05 2.608s-.264 2.127-.264 4.255v1.995c0 2.128.264 4.255.264 4.255s.258 1.812 1.05 2.61c1.004 1.047 2.324 1.014 2.912 1.123 2.113.202 8.98.264 8.98.264s5.548-.008 9.244-.273c.516-.062 1.642-.066 2.646-1.114.792-.798 1.05-2.61 1.05-2.61s.264-2.126.264-4.254v-1.996c0-2.13-.263-4.256-.263-4.256z"><path fill="#fff" d="M26.99 24.316v-1.808c0-.945-.187-1.636-.52-2.083-.45-.604-1.088-.925-1.89-.925-.817 0-1.455.32-1.92.925-.34.447-.537 1.178-.537 2.122v3.095c0 .94.218 1.598.558 2.04.464.603 1.102.904 1.94.904.836 0 1.492-.315 1.936-.957.194-.285.32-.605.375-.96.015-.16.058-.526.058-1.043v-.25h-1.68c0 .643.002 1.024-.014 1.11-.09.43-.32.645-.715.645-.55 0-.782-.41-.776-1.228v-1.59h3.186zm-3.186-2.302c0-.827.227-1.053.76-1.053.532 0 .743.247.743 1.064v.965h-1.503v-.976z"><path fill="#fff" d="M19.567 19.486c-.59 0-1.175.363-1.692 1l.002-3.864h-1.592v11.852h1.592l.002-.89c.534.66 1.118 1.003 1.687 1.003.638 0 1.104-.34 1.316-.998.107-.375.178-.952.178-1.77v-3.537c0-.838-.106-1.41-.214-1.766-.212-.662-.64-1.03-1.28-1.03zm-.186 6.423c0 .883-.208 1.223-.67 1.223-.264 0-.567-.137-.835-.404l.002-5.365c.27-.264.57-.403.833-.403.462 0 .67.26.67 1.145v3.802z"><path fill="#fff" d="M14.958 28.474h-1.68V27.5c-.637.73-1.177 1.1-1.767 1.1-.516 0-.874-.244-1.053-.684-.11-.268-.188-.687-.188-1.3V19.63h1.68v7.164c.04.247.145.34.358.34.322 0 .613-.28.97-.783v-6.72h1.68v8.844z"><path fill="#fff" d="M8.59 28.474H6.82V18.302H4.965v-1.678l5.572-.002v1.68H8.59z"></g></defs></svg>